<?xml version="1.0" encoding="utf-8"?>
<?xml-stylesheet type="text/xsl" href="rss1.xsl"?>
<rss version="2.0" xmlns:atom="http://www.w3.org/2005/Atom" xmlns:content="http://purl.org/rss/1.0/modules/content/" xmlns:dc="http://purl.org/dc/elements/1.1/" xmlns:media="http://search.yahoo.com/mrss/">
<channel>
 <title>Getty</title>
 <link>http://www.gettyimg.com/</link>
 <atom:link href="http://www.gettyimg.com/" rel="self" type="application/rss+xml" />

 
                <item>
                <title><![CDATA[【YOUTUBE】WEB-RiP - Kylie Minogue - Some Kind of Bliss (YTPREMIUM-1080P-VP9-LK72)]]></title>
                <link><![CDATA[https://sharemania.us/threads/kylie-minogue-some-kind-of-bliss-ytpremium-1080p-vp9-lk72.228851/]]></link>
                <description><![CDATA[<article>
<blockquote class="messageText SelectQuoteContainer ugc baseHtml">
<div style="text-align: center"><img src="https://i.imgur.com/b2mW1ok.jpg" class="bbCodeImage LbImage" alt="[​IMG]" data-url="https://i.imgur.com/b2mW1ok.jpg" style=""> <br>
<div class="bbCodeBlock bbCodeVfcHH HiddenContent">
<div class="attribution type">Hidden Content:</div>
<blockquote>You must reply before you can see the hidden data contained here.</blockquote>
</div></div>
<div class="messageTextEndMarker">&nbsp;</div>
</blockquote>
</article>]]></description>
                <author><![CDATA[luke72]]></author>
                </item>

                
                <item>
                <title><![CDATA[【Cinema Center】SERIES - Miraculous: Tales of Ladybug and Cat Noir - Season 5 - 1080p Disney+ WEB-DL DDP5.1 H.264-LADYBUG]]></title>
                <link><![CDATA[https://sharemania.us/threads/miraculous-tales-of-ladybug-and-cat-noir-season-5-1080p-disney-web-dl-ddp5-1-h-264-ladybug.228850/]]></link>
                <description><![CDATA[<article>
<blockquote class="messageText SelectQuoteContainer ugc baseHtml">
Miraculous: Tales of Ladybug &amp; Cat Noir:<img src="https://cdn1.edgedatg.com/aws/v2/dnow/MiraculousTalesofLadybugCatNoir/theme/2425136/98011d5ee6e56bf8824cca4d911dc351/1440x360-Q95_98011d5ee6e56bf8824cca4d911dc351.jpg" class="bbCodeImage LbImage" alt="[​IMG]" data-url="https://cdn1.edgedatg.com/aws/v2/dnow/MiraculousTalesofLadybugCatNoir/theme/2425136/98011d5ee6e56bf8824cca4d911dc351/1440x360-Q95_98011d5ee6e56bf8824cca4d911dc351.jpg" style=""><br>
<br>
<div class="bbCodeBlock bbCodeQuote">
<aside>
<blockquote class="quoteContainer"><div class="quote"><i><b>Synopsis:</b></i><br>
Marinette Dupain-Cheng, your average shy, clumsy high-school student is given magical powers, along with her crush, Adrien Agreste<b>.</b> While facing homework, school, bullies and keeping her identity secret, she turns into Ladybug, with her partner Cat Noir.</div><div class="quoteExpand">Click to expand...</div></blockquote>
</aside>
</div>
<div class="ToggleTriggerAnchor bbCodeSpoilerContainer">
<button type="button" class="button bbCodeSpoilerButton ToggleTrigger Tooltip JsOnly" data-target="> .SpoilerTarget"><span>Spoiler: <span class="SpoilerTitle">MediaInfo</span></span></button>
<div class="SpoilerTarget bbCodeSpoilerText">General<br>
Unique ID : 127979167898670982498509987287718384912 (0x6047E423CEC1705EAEB044CAFCB35510)<br>
Complete name : /home/lazy/data/Miraculous.Tales.of.Ladybug.and.Cat.Noir.S05.1080p.DSNP.WEB-DL.DDP5.1.H.264-LADYBUG/Miraculous.Tales.of.Ladybug.and.Cat.Noir.S05E01.Evolution.1080p.DSNP.WEB-DL.DDP5.1.H.264-LADYBUG.mkv<br>
Format : Matroska<br>
Format version : Version 4<br>
File size : 1.27 GiB<br>
Duration : 22 min 52 s<br>
Overall bit rate mode : Variable<br>
Overall bit rate : 7 950 kb/s<br>
Frame rate : 23.976 FPS<br>
Writing application : mkvmerge v69.0.0 ('Day And Age') 64-bit<br>
Writing library : libebml v1.4.2 + libmatroska v1.6.4<br>
<br>
Video<br>
ID : 1<br>
Format : AVC<br>
Format/Info : Advanced Video Codec<br>
Format profile : High@L4<br>
Format settings : CABAC / 4 Ref Frames<br>
Format settings, CABAC : Yes<br>
Format settings, Reference frames : 4 frames<br>
Codec ID : V_MPEG4/ISO/AVC<br>
Duration : 22 min 52 s<br>
Bit rate mode : Variable<br>
Bit rate : 7 434 kb/s<br>
Maximum bit rate : 12.7 Mb/s<br>
Width : 1 920 pixels<br>
Height : 1 080 pixels<br>
Display aspect ratio : 16:9<br>
Frame rate mode : Constant<br>
Frame rate : 23.976 (24000/1001) FPS<br>
Color space : YUV<br>
Chroma subsampling : 4:2:0<br>
Bit depth : 8 bits<br>
Scan type : Progressive<br>
Bits/(Pixel*Frame) : 0.150<br>
Stream size : 1.19 GiB (93%)<br>
Default : Yes<br>
Forced : No<br>
Color range : Limited<br>
Color primaries : BT.709<br>
Transfer characteristics : BT.709<br>
Matrix coefficients : BT.709<br>
<br>
Audio #1<br>
ID : 2<br>
Format : E-AC-3<br>
Format/Info : Enhanced AC-3<br>
Commercial name : Dolby Digital Plus<br>
Codec ID : A_EAC3<br>
Duration : 22 min 52 s<br>
Bit rate mode : Constant<br>
Bit rate : 256 kb/s<br>
Channel(s) : 6 channels<br>
Channel layout : L R C LFE Ls Rs<br>
Sampling rate : 48.0 kHz<br>
Frame rate : 31.250 FPS (1536 SPF)<br>
Compression mode : Lossy<br>
Stream size : 41.9 MiB (3%)<br>
Language : English<br>
Service kind : Complete Main<br>
Default : Yes<br>
Forced : No<br>
<br>
Audio #2<br>
ID : 3<br>
Format : E-AC-3<br>
Format/Info : Enhanced AC-3<br>
Commercial name : Dolby Digital Plus<br>
Codec ID : A_EAC3<br>
Duration : 22 min 52 s<br>
Bit rate mode : Constant<br>
Bit rate : 256 kb/s<br>
Channel(s) : 6 channels<br>
Channel layout : L R C LFE Ls Rs<br>
Sampling rate : 48.0 kHz<br>
Frame rate : 31.250 FPS (1536 SPF)<br>
Compression mode : Lossy<br>
Stream size : 41.9 MiB (3%)<br>
Language : French (FR)<br>
Service kind : Complete Main<br>
Default : No<br>
Forced : No<br>
<br>
Text #1<br>
ID : 4<br>
Format : UTF-8<br>
Codec ID : S_TEXT/UTF8<br>
Codec ID/Info : UTF-8 Plain Text<br>
Duration : 22 min 17 s<br>
Bit rate : 76 b/s<br>
Frame rate : 0.269 FPS<br>
Count of elements : 360<br>
Stream size : 12.4 KiB (0%)<br>
Language : English<br>
Default : No<br>
Forced : No<br>
<br>
Text #2<br>
ID : 5<br>
Format : UTF-8<br>
Codec ID : S_TEXT/UTF8<br>
Codec ID/Info : UTF-8 Plain Text<br>
Duration : 22 min 17 s<br>
Bit rate : 87 b/s<br>
Frame rate : 0.321 FPS<br>
Count of elements : 430<br>
Stream size : 14.3 KiB (0%)<br>
Title : SDH<br>
Language : English<br>
Default : No<br>
Forced : No<br>
<br>
Text #3<br>
ID : 6<br>
Format : UTF-8<br>
Codec ID : S_TEXT/UTF8<br>
Codec ID/Info : UTF-8 Plain Text<br>
Duration : 22 min 30 s<br>
Bit rate : 70 b/s<br>
Frame rate : 0.262 FPS<br>
Count of elements : 354<br>
Stream size : 11.6 KiB (0%)<br>
Language : French (FR)<br>
Default : No<br>
Forced : No<br>
<br>
Text #4<br>
ID : 7<br>
Format : UTF-8<br>
Codec ID : S_TEXT/UTF8<br>
Codec ID/Info : UTF-8 Plain Text<br>
Duration : 22 min 17 s<br>
Bit rate : 65 b/s<br>
Frame rate : 0.241 FPS<br>
Count of elements : 323<br>
Stream size : 10.8 KiB (0%)<br>
Language : French (FR)<br>
Default : No<br>
Forced : No<br>
<br>
Text #5<br>
ID : 8<br>
Format : UTF-8<br>
Codec ID : S_TEXT/UTF8<br>
Codec ID/Info : UTF-8 Plain Text<br>
Duration : 22 min 20 s<br>
Bit rate : 71 b/s<br>
Frame rate : 0.280 FPS<br>
Count of elements : 376<br>
Stream size : 11.8 KiB (0%)<br>
Title : SDH<br>
Language : French (FR)<br>
Default : No<br>
Forced : No<br>
<br>
Text #6<br>
ID : 9<br>
Format : UTF-8<br>
Codec ID : S_TEXT/UTF8<br>
Codec ID/Info : UTF-8 Plain Text<br>
Duration : 21 min 52 s<br>
Bit rate : 62 b/s<br>
Frame rate : 0.205 FPS<br>
Count of elements : 269<br>
Stream size : 10.0 KiB (0%)<br>
Language : Danish<br>
Default : No<br>
Forced : No<br>
<br>
Text #7<br>
ID : 10<br>
Format : UTF-8<br>
Codec ID : S_TEXT/UTF8<br>
Codec ID/Info : UTF-8 Plain Text<br>
Duration : 21 min 52 s<br>
Bit rate : 62 b/s<br>
Frame rate : 0.208 FPS<br>
Count of elements : 273<br>
Stream size : 10.1 KiB (0%)<br>
Language : German<br>
Default : No<br>
Forced : No<br>
<br>
Text #8<br>
ID : 11<br>
Format : UTF-8<br>
Codec ID : S_TEXT/UTF8<br>
Codec ID/Info : UTF-8 Plain Text<br>
Duration : 22 min 41 s<br>
Bit rate : 55 b/s<br>
Frame rate : 0.216 FPS<br>
Count of elements : 294<br>
Stream size : 9.21 KiB (0%)<br>
Title : Spanish (Latin America)<br>
Language : Spanish (Latin America)<br>
Default : No<br>
Forced : No<br>
<br>
Text #9<br>
ID : 12<br>
Format : UTF-8<br>
Codec ID : S_TEXT/UTF8<br>
Codec ID/Info : UTF-8 Plain Text<br>
Duration : 22 min 22 s<br>
Bit rate : 61 b/s<br>
Frame rate : 0.207 FPS<br>
Count of elements : 278<br>
Stream size : 10.1 KiB (0%)<br>
Title : Spanish (Spain)<br>
Language : Spanish (ES)<br>
Default : No<br>
Forced : No<br>
<br>
Text #10<br>
ID : 13<br>
Format : UTF-8<br>
Codec ID : S_TEXT/UTF8<br>
Codec ID/Info : UTF-8 Plain Text<br>
Duration : 21 min 53 s<br>
Bit rate : 64 b/s<br>
Frame rate : 0.199 FPS<br>
Count of elements : 262<br>
Stream size : 10.3 KiB (0%)<br>
Language : Finnish<br>
Default : No<br>
Forced : No<br>
<br>
Text #11<br>
ID : 14<br>
Format : UTF-8<br>
Codec ID : S_TEXT/UTF8<br>
Codec ID/Info : UTF-8 Plain Text<br>
Duration : 21 min 52 s<br>
Bit rate : 67 b/s<br>
Frame rate : 0.216 FPS<br>
Count of elements : 284<br>
Stream size : 10.9 KiB (0%)<br>
Language : Italian<br>
Default : No<br>
Forced : No<br>
<br>
Text #12<br>
ID : 15<br>
Format : UTF-8<br>
Codec ID : S_TEXT/UTF8<br>
Codec ID/Info : UTF-8 Plain Text<br>
Duration : 22 min 41 s<br>
Bit rate : 71 b/s<br>
Frame rate : 0.231 FPS<br>
Count of elements : 315<br>
Stream size : 12.0 KiB (0%)<br>
Language : Dutch<br>
Default : No<br>
Forced : No<br>
<br>
Text #13<br>
ID : 16<br>
Format : UTF-8<br>
Codec ID : S_TEXT/UTF8<br>
Codec ID/Info : UTF-8 Plain Text<br>
Duration : 22 min 43 s<br>
Bit rate : 68 b/s<br>
Frame rate : 0.231 FPS<br>
Count of elements : 315<br>
Stream size : 11.4 KiB (0%)<br>
Language : Norwegian<br>
Default : No<br>
Forced : No<br>
<br>
Text #14<br>
ID : 17<br>
Format : UTF-8<br>
Codec ID : S_TEXT/UTF8<br>
Codec ID/Info : UTF-8 Plain Text<br>
Duration : 21 min 50 s<br>
Bit rate : 61 b/s<br>
Frame rate : 0.206 FPS<br>
Count of elements : 270<br>
Stream size : 9.78 KiB (0%)<br>
Language : Polish<br>
Default : No<br>
Forced : No<br>
<br>
Text #15<br>
ID : 18<br>
Format : UTF-8<br>
Codec ID : S_TEXT/UTF8<br>
Codec ID/Info : UTF-8 Plain Text<br>
Duration : 22 min 22 s<br>
Bit rate : 63 b/s<br>
Frame rate : 0.206 FPS<br>
Count of elements : 276<br>
Stream size : 10.3 KiB (0%)<br>
Language : Portuguese (PT)<br>
Default : No<br>
Forced : No<br>
<br>
Text #16<br>
ID : 19<br>
Format : UTF-8<br>
Codec ID : S_TEXT/UTF8<br>
Codec ID/Info : UTF-8 Plain Text<br>
Duration : 21 min 52 s<br>
Bit rate : 70 b/s<br>
Frame rate : 0.197 FPS<br>
Count of elements : 259<br>
Stream size : 11.3 KiB (0%)<br>
Language : Romanian<br>
Default : No<br>
Forced : No<br>
<br>
Text #17<br>
ID : 20<br>
Format : UTF-8<br>
Codec ID : S_TEXT/UTF8<br>
Codec ID/Info : UTF-8 Plain Text<br>
Duration : 21 min 52 s<br>
Bit rate : 65 b/s<br>
Frame rate : 0.208 FPS<br>
Count of elements : 273<br>
Stream size : 10.5 KiB (0%)<br>
Language : Swedish<br>
Default : No<br>
Forced : No<br>
<br>
Text #18<br>
ID : 21<br>
Format : UTF-8<br>
Codec ID : S_TEXT/UTF8<br>
Codec ID/Info : UTF-8 Plain Text<br>
Duration : 21 min 52 s<br>
Bit rate : 70 b/s<br>
Frame rate : 0.206 FPS<br>
Count of elements : 270<br>
Stream size : 11.2 KiB (0%)<br>
Language : Turkish<br>
Default : No<br>
Forced : No<br>
<br>
Text #19<br>
ID : 22<br>
Format : UTF-8<br>
Codec ID : S_TEXT/UTF8<br>
Codec ID/Info : UTF-8 Plain Text<br>
Duration : 22 min 41 s<br>
Bit rate : 65 b/s<br>
Frame rate : 0.252 FPS<br>
Count of elements : 343<br>
Stream size : 10.8 KiB (0%)<br>
Title : Chinese (Hong Kong SAR China)<br>
Language : Chinese (HK)<br>
Default : No<br>
Forced : No<br>
<br>
Text #20<br>
ID : 23<br>
Format : UTF-8<br>
Codec ID : S_TEXT/UTF8<br>
Codec ID/Info : UTF-8 Plain Text<br>
Duration : 22 min 41 s<br>
Bit rate : 65 b/s<br>
Frame rate : 0.252 FPS<br>
Count of elements : 343<br>
Stream size : 10.9 KiB (0%)<br>
Title : Chinese (Simplified)<br>
Language : Chinese (Simplified)<br>
Default : No<br>
Forced : No<br>
<br>
Text #21<br>
ID : 24<br>
Format : UTF-8<br>
Codec ID : S_TEXT/UTF8<br>
Codec ID/Info : UTF-8 Plain Text<br>
Duration : 22 min 41 s<br>
Bit rate : 61 b/s<br>
Frame rate : 0.250 FPS<br>
Count of elements : 341<br>
Stream size : 10.3 KiB (0%)<br>
Title : Chinese (Traditional)<br>
Language : Chinese (Traditional)<br>
Default : No<br>
Forced : No</div>
</div><br>
Screenshots:<br>
<img src="https://i.imgur.com/cW8xRdM.jpg" class="bbCodeImage LbImage" alt="[​IMG]" data-url="https://i.imgur.com/cW8xRdM.jpg" style=""> <br>
<br>
<div class="bbCodeBlock bbCodeVfcHH HiddenContent">
<div class="attribution type">Hidden Content:</div>
<blockquote>You must either reply or click 'Like' to see the hidden information contained here.</blockquote>
</div>
<div class="messageTextEndMarker">&nbsp;</div>
</blockquote>
</article>]]></description>
                <author><![CDATA[LazyRips]]></author>
                </item>

                </channel></rss>